HIERARCHY
ROOT pelvis
{
	OFFSET 0.000000 0.000000 0.000000
	CHANNELS 6 Xposition Yposition Zposition Zrotation Xrotation Yrotation
	JOINT lfemur
	{
		OFFSET 11.446000 0.000000 0.000000
		CHANNELS 3 Zrotation Xrotation Yrotation
		JOINT ltibia
		{
			OFFSET 0.000000 -42.030400 0.000000
			CHANNELS 3 Zrotation Xrotation Yrotation
			JOINT lfoot
			{
				OFFSET 0.000000 -39.930200 0.000000
				CHANNELS 3 Zrotation Xrotation Yrotation
				JOINT ltoes
				{
					OFFSET 0.000000 0.000000 11.775800
					CHANNELS 3 Zrotation Xrotation Yrotation
					End Site
					{
					    OFFSET 0.000000 0.000000 5.000000
					}
				}
			}
		}
	}
	JOINT rfemur
	{
		OFFSET -11.446000 0.000000 0.000000
		CHANNELS 3 Zrotation Xrotation Yrotation
		JOINT rtibia
		{
			OFFSET 0.000000 -42.030400 0.000000
			CHANNELS 3 Zrotation Xrotation Yrotation
			JOINT rfoot
			{
				OFFSET 0.000000 -39.930200 0.000000
				CHANNELS 3 Zrotation Xrotation Yrotation
				JOINT rtoes
				{
					OFFSET 0.000000 0.000000 11.775800
					CHANNELS 3 Zrotation Xrotation Yrotation
					End Site
					{
					    OFFSET 0.000000 0.000000 5.000000
					}
				}
			}
		}
	}
	JOINT thorax
	{
		OFFSET 0.000000 11.255600 -5.000000
		CHANNELS 3 Zrotation Xrotation Yrotation
		JOINT head
		{
			OFFSET 0.000000 43.799300 0.000000
			CHANNELS 3 Zrotation Xrotation Yrotation
			End Site
			{
			    OFFSET 0.000000 5.000000 0.000000
			}
		}
		JOINT lclavicle
		{
			OFFSET 0.000000 39.863000 0.000000
			CHANNELS 3 Zrotation Xrotation Yrotation
			JOINT lhumerus
			{
				OFFSET 17.380600 4.958300 0.000000
				CHANNELS 3 Zrotation Xrotation Yrotation
				JOINT lradius
				{
					OFFSET 0.000000 -27.561300 0.000000
					CHANNELS 3 Zrotation Xrotation Yrotation
					JOINT lhand
					{
						OFFSET 0.000000 -26.933000 0.000000
						CHANNELS 3 Zrotation Xrotation Yrotation
						End Site
						{
						    OFFSET 0.000000 -5.000000 0.000000
						}
					}
				}
			}
		}
		JOINT rclavicle
		{
			OFFSET 0.000000 39.863000 0.000000
			CHANNELS 3 Zrotation Xrotation Yrotation
			JOINT rhumerus
			{
				OFFSET -17.380600 4.958300 0.000000
				CHANNELS 3 Zrotation Xrotation Yrotation
				JOINT rradius
				{
					OFFSET 0.000000 -27.561300 0.000000
					CHANNELS 3 Zrotation Xrotation Yrotation
					JOINT rhand
					{
						OFFSET 0.000000 -26.933000 0.000000
						CHANNELS 3 Zrotation Xrotation Yrotation
						End Site
						{
						    OFFSET 0.000000 -5.000000 0.000000
						}
					}
				}
			}
		}
	}
}
MOTION
Frames:	18
Frame Time:	0.0333333
-35.026900 77.758700 9.333300 3.863153 -6.878950 -123.565089 6.276979 -48.232846 7.264092 -0.000000 53.196639 -0.000000 0.000000 9.317348 1.863048 0.000000 -1.609451 -0.000000 -15.014985 -31.938290 3.544275 -180.000037 89.867299 -180.000037 -0.000000 -3.467618 -1.150884 0.000000 -29.556151 0.000000 -9.797742 15.890238 1.068836 18.518740 16.346842 9.103036 -7.129496 0.000000 0.935437 28.066446 -0.141854 -11.908355 -180.000035 -44.195035 165.205372 40.038782 2.355631 -0.000000 26.713970 -0.000000 -1.876774 -52.476135 2.134654 28.814858 180.000036 -56.393519 -169.684525 -4.379728 -2.016510 -0.000000 
-30.885400 80.945300 8.319100 5.184708 -6.564189 -123.023513 7.404459 -45.079422 4.191198 -0.000000 41.144501 -0.000000 0.000000 19.594128 3.096507 -0.000000 -1.641165 -0.000000 -14.087996 -28.751385 2.839013 -0.000000 81.884519 0.000000 0.000000 0.197820 1.058192 -0.000000 -29.572202 0.000000 -8.995044 14.771980 0.692085 17.623848 18.784495 8.847374 -7.760962 -0.000000 0.861874 28.521821 1.473033 -11.509782 -180.000037 -44.304938 165.729313 39.816736 1.851201 -0.000000 26.868119 -0.000000 -1.643743 -51.587466 1.537849 29.621610 -180.000035 -57.894259 -170.722737 -3.419624 -2.344457 -0.000000 
-26.753500 83.771200 7.456500 6.037899 -6.535187 -122.145454 7.376872 -43.322517 4.373924 0.000000 34.217472 -0.000000 -0.000000 25.608687 6.501450 -0.000000 -1.604765 -0.000000 -13.160093 -25.745368 1.454530 -0.000000 72.411324 -0.000000 -0.000000 8.495939 0.979299 -0.000000 -29.578639 -0.000000 -8.234250 14.083564 0.195439 15.988669 20.582553 8.354600 -9.134625 -0.000000 0.691835 29.374681 2.663760 -11.185967 180.000037 -44.339262 164.783382 39.309976 1.694747 0.000000 27.273620 0.000000 -1.364561 -51.398002 1.958535 30.154675 180.000035 -58.470179 -171.423009 -3.735355 -2.237592 0.000000 
-23.102200 85.324900 6.863100 5.996957 -6.898096 -120.879707 4.862511 -44.557734 7.346430 0.000000 43.138620 -0.000000 0.000000 19.245799 5.819013 -0.000000 -1.593300 -0.000000 -13.576963 -22.649847 -1.536224 -0.000000 63.935304 -0.000000 0.000000 12.066037 -0.402797 -0.000000 -29.582075 -0.000000 -7.480294 14.076097 -0.341246 13.987349 21.567440 7.344788 -10.051477 -0.000000 0.193474 29.633875 2.954391 -11.467253 180.000033 -44.490443 164.048630 39.480532 1.735879 0.000000 27.127034 -0.000000 -1.462340 -51.878059 2.156638 29.982278 -180.000037 -57.884787 -171.887842 -3.234949 -2.407155 -0.000000 
-19.272700 85.251200 6.366700 5.578015 -7.275772 -119.799132 1.886123 -47.135203 9.940676 -0.000000 58.680005 0.000000 -0.000000 13.812845 1.903373 0.000000 -1.674685 -0.000000 -13.413947 -20.995161 -4.202240 0.000000 58.567266 -0.000000 0.000000 12.900962 -3.046114 -0.000000 -29.591043 -0.000000 -7.151009 14.035726 -0.759305 12.918740 22.344447 6.426530 -9.725689 0.000000 0.187797 29.151351 2.372233 -12.520795 180.000036 -44.486554 164.325687 39.097637 1.705056 -0.000000 26.557817 -0.000000 -1.831274 -52.158061 2.383033 30.170560 -180.000035 -57.387063 -171.123696 -3.465883 -2.329123 0.000000 
-15.026400 83.857200 5.804800 4.953990 -7.179907 -119.831119 0.969289 -48.929834 14.619370 0.000000 73.409509 -0.000000 0.000000 12.150410 -0.436440 -0.000000 -1.686228 0.000000 -11.949916 -21.187646 -5.394993 -0.000000 58.593569 -0.000000 -0.000000 10.063348 -4.588154 0.000000 -29.599922 -0.000000 -7.020615 14.597910 -0.574800 12.403374 22.161495 6.216674 -8.790724 -0.000000 1.199259 28.418526 1.190857 -13.622572 -180.000037 -44.019094 165.018517 38.989790 1.496978 0.000000 25.257489 -0.000000 -1.636805 -51.122135 3.294701 30.184720 180.000037 -57.193578 -171.207255 -3.769086 -2.225958 -0.000000 
-10.346400 81.590600 5.430100 4.945640 -7.668918 -120.408070 -0.245725 -51.053014 17.687449 -0.000000 84.977898 -0.000000 0.000000 10.767816 -2.650607 0.000000 -1.713679 -0.000000 -10.683073 -24.661035 -5.306810 0.000000 62.230269 -0.000000 -0.000000 2.409199 -5.660255 -0.000000 -29.601257 -0.000000 -7.609007 14.892712 0.031265 12.312612 20.414919 6.564083 -8.047476 0.000000 2.074983 28.008336 -0.070273 -14.439904 -180.000035 -43.056451 163.510724 39.304338 1.695176 0.000000 24.452988 -0.000000 -0.937506 -50.275191 5.053266 29.857299 180.000037 -56.360027 -171.999295 -2.571574 -2.633096 0.000000 
-5.529600 79.080200 5.210200 5.989034 -8.079891 -120.524504 -2.466665 -53.171855 16.346223 0.000000 89.644571 -0.000000 -0.000000 14.181108 -3.919943 -0.000000 -1.677715 -0.000000 -9.536120 -30.612300 -5.770105 0.000000 67.908774 -0.000000 0.000000 -3.785522 -4.695274 0.000000 -29.598795 -0.000000 -7.762023 15.396294 0.147580 12.765629 17.578928 7.467567 -7.925730 0.000000 2.725330 27.792084 -1.786384 -14.650061 180.000037 -41.936779 162.241686 39.338855 1.445786 -0.000000 24.357318 -0.000000 -0.499724 -50.172851 5.580676 29.716122 -180.000035 -55.529745 -171.320116 -3.387114 -2.355144 -0.000000 
-0.881200 76.872600 4.939900 7.679767 -7.649847 -120.439350 -5.380964 -52.416385 8.488053 -0.000000 83.104500 -0.000000 0.000000 15.830064 -5.477818 -0.000000 -1.653508 -0.000000 -7.742489 -36.921663 -7.505936 -0.000000 73.136479 -0.000000 0.000000 -6.815311 -3.668809 0.000000 -29.593266 0.000000 -7.019614 16.444756 -0.184080 13.565401 14.364286 9.318817 -8.236516 -0.000000 3.105077 27.430497 -3.274175 -14.238673 -180.000037 -41.308017 162.336211 38.957743 1.286211 0.000000 24.692684 -0.000000 -0.610347 -50.471189 4.323068 29.568177 -180.000036 -55.162596 -171.312315 -3.137503 -2.439091 -0.000000 
3.501000 75.120700 4.688400 8.973869 -7.331146 -121.447602 -6.894012 -50.530927 1.967623 0.000000 79.136637 -0.000000 -0.000000 1.017490 -3.493453 0.000000 -1.572381 0.000000 -6.700266 -41.838179 -10.235586 0.000000 76.092975 0.000000 0.000000 -9.728662 -1.174482 -0.000000 -29.594126 -0.000000 -7.274010 16.813356 0.292029 15.149892 12.189729 11.066900 -8.134381 -0.000000 3.061331 26.344708 -2.990338 -14.481606 -180.000037 -41.823220 160.310100 39.214911 1.319919 0.000000 25.601538 -0.000000 -1.647316 -51.562821 1.891273 30.141762 -180.000036 -55.663064 -170.288015 -3.034414 -2.473414 -0.000000 
8.084500 74.417400 4.644400 10.281366 -8.479159 -122.417929 -5.694875 -52.940841 4.433302 -0.000000 75.887195 0.000000 0.000000 -5.167670 3.291207 -0.000000 -1.452572 0.000000 -7.800096 -46.592869 -14.179373 -0.000000 76.988440 -0.000000 0.000000 -10.834801 3.728097 0.000000 -29.592012 -0.000000 -9.003497 16.222899 0.826927 16.672860 10.586204 11.800770 -8.183218 -0.000000 2.437485 26.455027 -2.328587 -13.769305 180.000034 -41.985897 162.344021 38.937293 0.918003 0.000000 26.845011 0.000000 -2.172215 -52.257037 -0.458935 29.494950 -180.000036 -55.887843 -171.058798 -3.129684 -2.439957 0.000000 
12.357400 74.974700 4.636300 10.753018 -9.172470 -122.991469 -4.790309 -54.468286 3.106919 0.000000 72.116759 -0.000000 0.000000 -4.861942 4.650697 -0.000000 -1.445278 -0.000000 -10.384052 -48.824153 -18.202323 0.000000 76.243464 0.000000 0.000000 -8.773973 11.651701 -0.000000 -29.616335 -0.000000 -9.811185 16.893586 1.158889 17.016758 9.054974 11.705465 -8.478664 0.000000 2.475204 27.230999 -2.579545 -13.470450 180.000036 -42.460700 162.001128 39.127858 1.071701 -0.000000 26.646206 -0.000000 -2.139914 -51.772848 -3.183897 28.637032 180.000035 -55.861445 -171.910091 -2.991155 -2.485474 0.000000 
16.200300 76.272200 4.309100 10.351842 -9.038562 -123.763739 -4.410775 -53.201062 -0.914877 0.000000 66.378565 -0.000000 -0.000000 -3.201230 5.883266 -0.000000 -1.480586 0.000000 -12.002809 -47.744419 -18.974294 0.000000 76.598976 0.000000 -0.000000 -6.922351 6.558422 -0.000000 -29.607722 -0.000000 -9.766456 16.927698 2.014812 16.277525 10.020493 11.174846 -9.250083 -0.000000 2.198919 27.834440 -1.748574 -13.314749 -180.000036 -43.123890 163.537804 38.958466 0.846114 -0.000000 26.169408 0.000000 -1.307256 -51.869410 -4.801793 28.705023 -180.000036 -55.765676 -171.301323 -2.693198 -2.584853 -0.000000 
20.301600 78.273200 3.551700 10.544892 -8.876909 -123.488395 -2.708842 -51.438581 -2.166500 -0.000000 58.691295 0.000000 -0.000000 0.679236 7.055099 -0.000000 -1.509565 -0.000000 -12.529985 -43.734507 -15.648651 0.000000 76.905795 -0.000000 -0.000000 -7.044711 2.698353 -0.000000 -29.594564 -0.000000 -9.343399 15.907324 2.532733 16.214616 11.819942 10.017254 -9.595938 -0.000000 2.663806 28.210710 -1.815964 -14.087351 -180.000036 -44.213647 163.824545 38.621233 0.713796 -0.000000 25.496693 -0.000000 -0.578898 -51.545431 -6.733517 29.498002 180.000036 -56.429061 -170.404991 -3.102162 -2.447190 -0.000000 
24.852600 80.855500 2.559900 10.950354 -9.520226 -121.256358 -1.692735 -50.300157 -2.861883 -0.000000 49.570542 0.000000 -0.000000 9.695611 6.123469 -0.000000 -1.528755 0.000000 -13.715414 -37.605609 -12.099328 -0.000000 75.334277 0.000000 0.000000 -2.119559 -2.396882 0.000000 -29.570552 -0.000000 -9.798519 14.646499 2.452957 16.861155 13.072685 8.288507 -9.551048 -0.000000 2.695208 28.666126 -2.249057 -15.301603 -180.000037 -44.953354 163.542715 38.142334 0.916564 0.000000 25.505745 -0.000000 -0.668971 -51.079184 -8.619181 29.994482 180.000037 -57.243998 -170.063509 -2.914558 -2.510450 0.000000 
29.376800 83.452500 1.521500 11.320455 -9.953690 -117.664062 -1.606546 -48.569453 -2.824496 0.000000 39.963486 0.000000 -0.000000 18.956109 4.994319 -0.000000 -1.516403 -0.000000 -15.017378 -29.182952 -10.615699 -0.000000 69.888791 -0.000000 0.000000 4.804393 -7.447821 -0.000000 -29.549559 0.000000 -9.846632 13.506202 1.882763 17.125636 14.542397 5.983888 -10.130913 0.000000 1.919134 29.896917 -2.837361 -16.385908 180.000035 -45.863261 164.010251 37.689501 1.195369 -0.000000 25.731457 -0.000000 0.151766 -50.454726 -7.290625 29.333195 180.000037 -57.276423 -170.180473 -2.964135 -2.495745 -0.000000 
33.402700 84.873900 0.475300 11.318714 -10.178680 -114.163788 -2.909098 -47.466246 -4.233664 0.000000 40.686940 -0.000000 -0.000000 15.374077 5.059920 -0.000000 -1.508114 -0.000000 -15.767354 -20.010023 -9.814255 -0.000000 61.623680 0.000000 0.000000 7.073243 -7.660113 -0.000000 -29.556297 -0.000000 -9.428879 12.140469 1.452391 16.584623 16.623510 3.155450 -10.831963 -0.000000 0.573469 30.801351 -2.832732 -17.449534 -180.000033 -46.720185 163.730092 37.220452 1.158186 -0.000000 26.397369 0.000000 0.310395 -51.314978 -5.557162 28.557239 180.000035 -56.534274 -170.361277 -2.456798 -2.667141 -0.000000 
37.424700 84.834100 -0.411100 11.122289 -10.422123 -112.357441 -4.207294 -48.605678 -4.986069 -0.000000 53.418415 -0.000000 -0.000000 11.215021 2.183885 -0.000000 -1.621131 -0.000000 -15.962838 -12.403283 -9.162788 0.000000 50.702106 0.000000 0.000000 10.435439 -7.819954 0.000000 -29.567260 -0.000000 -9.160762 10.786856 1.734838 16.018806 18.700413 1.416510 -10.889283 -0.000000 0.430452 30.878297 -3.750278 -18.564519 -180.000037 -47.194121 163.916582 35.934141 1.483590 -0.000000 26.454285 -0.000000 -0.516076 -51.952727 -4.727039 27.890141 180.000036 -55.892482 -168.855836 -2.762468 -2.562556 0.000000 
